<?xml version="1.0" encoding="UTF-8" standalone="no"?>
<svg
   version="1.1"
   viewBox="0 0 600 220"
   id="svg8"
   sodipodi:docname="logo_inverse.svg"
   width="600"
   height="220"
   inkscape:version="1.4 (86a8ad7, 2024-10-11)"
   xmlns:inkscape="http://www.inkscape.org/namespaces/inkscape"
   xmlns:sodipodi="http://sodipodi.sourceforge.net/DTD/sodipodi-0.dtd"
   xmlns="http://www.w3.org/2000/svg"
   xmlns:svg="http://www.w3.org/2000/svg">
  <sodipodi:namedview
     id="namedview8"
     pagecolor="#ffffff"
     bordercolor="#000000"
     borderopacity="0.25"
     inkscape:showpageshadow="2"
     inkscape:pageopacity="0.0"
     inkscape:pagecheckerboard="true"
     inkscape:deskcolor="#d1d1d1"
     inkscape:zoom="2.055"
     inkscape:cx="287.59124"
     inkscape:cy="85.888078"
     inkscape:window-width="2880"
     inkscape:window-height="1514"
     inkscape:window-x="2869"
     inkscape:window-y="-11"
     inkscape:window-maximized="1"
     inkscape:current-layer="svg8"
     showgrid="false" />
  <defs
     id="defs1">
    <style
       id="style1">
      .cls-1 {
        fill: #0062a4;
      }

      .cls-2 {
        fill: #fff;
      }

      .cls-3 {
        fill: #1f4578;
      }

      .cls-4 {
        fill: #12100b;
      }
    </style>
  </defs>
  <!-- Generator: Adobe Illustrator 28.7.3, SVG Export Plug-In . SVG Version: 1.2.0 Build 164)  -->
  <g
     id="g8"
     transform="translate(-0.486618,-188.80779)"
     style="stroke:#ffffff;fill:#ffffff">
    <g
       id="Camada_1"
       style="stroke:#ffffff;fill:#ffffff">
      <path
         class="cls-1"
         d="m 184.85,267.66 v 0 l -88.4,46.2 c -4.71,2.44 -10.51,0.61 -12.95,-4.11 -2.45,-4.71 -0.61,-10.51 4.1,-12.95 l 88.41,-46.21 c 4.71,-2.44 10.51,-0.6 12.96,4.11 2.44,4.71 0.6,10.51 -4.11,12.95"
         id="path1"
         style="stroke:#ffffff;fill:#ffffff" />
      <path
         class="cls-1"
         d="m 184.94,303.07 v 0 l -88.49,46.22 c -4.63,2.48 -10.39,0.74 -12.87,-3.89 -0.02,-0.04 -0.04,-0.07 -0.06,-0.11 -2.45,-4.71 -0.63,-10.51 4.07,-12.97 l 88.49,-46.3 c 4.71,-2.45 10.51,-0.61 12.96,4.09 2.45,4.71 0.62,10.51 -4.09,12.96 v 0 z"
         id="path2"
         style="stroke:#ffffff;fill:#ffffff" />
      <path
         class="cls-1"
         d="m 184.95,338.58 v 0 l -88.42,46.21 c -4.73,2.41 -10.51,0.53 -12.92,-4.19 -2.39,-4.68 -0.57,-10.41 4.07,-12.86 l 88.4,-46.21 c 4.71,-2.45 10.51,-0.61 12.96,4.1 2.45,4.71 0.61,10.51 -4.1,12.96 z"
         id="path3"
         style="stroke:#ffffff;fill:#ffffff" />
      <path
         class="cls-1"
         d="m 184.85,232.25 v 0 L 62.7,296.02 c -15.53,8.09 -28.2,9.14 -37.57,2.86 -13.88,-9.13 -13.28,-29.31 -13.1,-32.29 l -0.09,-43.07 c 0.16,-5.3 4.59,-9.46 9.88,-9.3 5.3,0.16 9.46,4.59 9.3,9.88 0,0.07 0,0.14 0,0.2 v 43.52 c 0.26,3.73 -0.09,11.39 5.12,13.92 3.21,1.47 9.2,1.65 17.61,-2.78 L 176,215.17 c 4.73,-2.41 10.52,-0.53 12.92,4.2 2.38,4.68 0.57,10.41 -4.08,12.86 v 0 z"
         id="path4"
         style="stroke:#ffffff;fill:#ffffff" />
      <path
         class="cls-3"
         d="m 393.17,248.68 h -0.15 c -2.39,0.06 -4.66,0.89 -6.37,2.58 -1.59,1.57 -2.53,3.63 -2.66,5.98 -7.19,-5.48 -16.06,-8.51 -25.12,-8.56 -23.81,0 -43.19,20.37 -43.19,45.4 0,25.03 19.38,45.42 43.2,45.42 9.06,-0.08 17.92,-3.15 25.1,-8.65 0.09,2.27 1.02,4.4 2.65,6.02 1.7,1.69 3.96,2.62 6.35,2.62 H 393 c 4.94,0 8.97,-4.04 8.98,-8.98 v -72.76 c 0.03,-2.39 -0.87,-4.65 -2.54,-6.37 -1.67,-1.71 -3.9,-2.68 -6.28,-2.71 m -9.18,45.41 c 0,15.09 -11.26,27.36 -25.11,27.36 -13.85,0 -25.18,-12.28 -25.18,-27.36 0,-15.08 11.3,-27.53 25.18,-27.53 13.88,0 25.11,12.35 25.11,27.53 m 9.04,-44.71"
         id="path5"
         style="stroke:#ffffff;fill:#ffffff" />
      <path
         class="cls-3"
         d="m 452.72,248.83 v 0 c -7.26,0.02 -14.29,2.1 -20.37,6.03 -1.43,-4.23 -5.87,-6.81 -10.32,-5.83 -4.14,0.91 -7.09,4.65 -6.99,8.87 v 75.62 l 0.62,0.72 c 0.08,0.11 0.15,0.25 0.23,0.38 0.09,0.16 0.18,0.32 0.25,0.42 1.23,2.08 3.18,3.59 5.5,4.25 l 0.58,0.17 1.77,0.03 h 0.11 c 2.66,0 5.19,-1.25 6.78,-3.35 0.9,-1.1 1.53,-2.43 1.83,-3.96 l 0.09,-45.37 c 0.21,-10.97 8.96,-19.72 19.92,-19.93 10.89,0.04 19.76,8.93 19.77,19.83 v 43.79 c -0.07,4.94 3.89,9.02 8.83,9.09 0.04,0 0.09,0 0.14,0 2.34,0 4.55,-0.9 6.24,-2.53 1.72,-1.67 2.68,-3.9 2.72,-6.29 v -44.05 c 0.03,-20.81 -16.87,-37.8 -37.68,-37.88"
         id="path6"
         style="stroke:#ffffff;fill:#ffffff" />
      <path
         class="cls-3"
         d="m 579.68,214.26 h -0.04 v 0.69 c 0,0 -0.01,-0.2 -0.01,-0.2 v -0.5 c -2.39,-0.08 -4.64,0.83 -6.37,2.49 -1.72,1.65 -2.7,3.88 -2.75,6.41 v 34.17 C 563.1,251.73 554,248.67 544.7,248.67 h -0.05 c -24.23,0 -43.94,20.44 -43.94,45.57 0,25.13 19.71,45.25 43.93,45.25 h 0.21 c 9.22,0 18.28,-3.01 25.67,-8.5 0.25,4.79 4.22,8.6 9.07,8.6 4.85,0 9.08,-4.08 9.08,-9.08 V 223.15 c -0.02,-4.91 -4.02,-8.89 -8.99,-8.89 m -9.18,78.65 v 2.48 c -0.57,14.52 -11.93,25.89 -25.86,25.89 -13.93,0 -25.77,-12.12 -25.77,-27.03 0,-14.91 11.56,-27.36 25.77,-27.36 14.21,0 25.27,11.44 25.86,26.02"
         id="path7"
         style="stroke:#ffffff;fill:#ffffff" />
      <path
         class="cls-3"
         d="m 266.87,248.67 v 0 c -7.23,0.02 -14.24,2.04 -20.35,5.86 v -31.38 c -0.07,-4.93 -4.11,-8.89 -9.07,-8.89 -0.06,0 -0.13,0 -0.19,0 -2.36,0 -4.59,0.92 -6.27,2.58 -1.69,1.67 -2.64,3.91 -2.65,6.32 v 107.36 c 0,4.94 4.02,8.97 8.96,8.98 h 0.06 c 4.95,0 9.05,-4.01 9.16,-8.98 v -44.98 c 0,-10.81 8.56,-18.65 20.36,-18.65 11.8,0 20.59,7.85 20.59,18.65 v 44.98 c 0,4.94 4.02,8.97 8.96,8.98 h 0.06 c 4.95,0 9.05,-4.01 9.15,-8.98 v -44.98 c 0,-21.02 -16.67,-36.86 -38.76,-36.86"
         id="path8"
         style="stroke:#ffffff;fill:#ffffff" />
    </g>
  </g>
</svg>
