<?xml version="1.0" encoding="UTF-8" standalone="no"?>
<svg
   version="1.1"
   viewBox="0 0 220 220"
   id="svg8"
   sodipodi:docname="icon.svg"
   width="220"
   height="220"
   inkscape:version="1.4 (86a8ad7, 2024-10-11)"
   xmlns:inkscape="http://www.inkscape.org/namespaces/inkscape"
   xmlns:sodipodi="http://sodipodi.sourceforge.net/DTD/sodipodi-0.dtd"
   xmlns="http://www.w3.org/2000/svg"
   xmlns:svg="http://www.w3.org/2000/svg">
  <sodipodi:namedview
     id="namedview8"
     pagecolor="#ffffff"
     bordercolor="#000000"
     borderopacity="0.25"
     inkscape:showpageshadow="2"
     inkscape:pageopacity="0.0"
     inkscape:pagecheckerboard="true"
     inkscape:deskcolor="#d1d1d1"
     inkscape:zoom="2.055"
     inkscape:cx="287.59124"
     inkscape:cy="86.374696"
     inkscape:window-width="2880"
     inkscape:window-height="1514"
     inkscape:window-x="2869"
     inkscape:window-y="-11"
     inkscape:window-maximized="1"
     inkscape:current-layer="svg8"
     showgrid="false" />
  <defs
     id="defs1">
    <style
       id="style1">
      .cls-1 {
        fill: #0062a4;
      }

      .cls-2 {
        fill: #fff;
      }

      .cls-3 {
        fill: #1f4578;
      }

      .cls-4 {
        fill: #12100b;
      }
    </style>
  </defs>
  <!-- Generator: Adobe Illustrator 28.7.3, SVG Export Plug-In . SVG Version: 1.2.0 Build 164)  -->
  <g
     id="g1"
     transform="translate(10)">
    <path
       class="cls-1"
       d="m 184.36338,78.85221 v 0 l -88.399998,46.2 c -4.71,2.44 -10.51,0.61 -12.95,-4.11 -2.45,-4.71 -0.61,-10.51 4.1,-12.95 l 88.409998,-46.21 c 4.71,-2.44 10.51,-0.6 12.96,4.11 2.44,4.71 0.6,10.51 -4.11,12.95"
       id="path1" />
    <path
       class="cls-1"
       d="m 184.45338,114.26221 v 0 l -88.489998,46.22 c -4.63,2.48 -10.39,0.74 -12.87,-3.89 -0.02,-0.04 -0.04,-0.07 -0.06,-0.11 -2.45,-4.71 -0.63,-10.51 4.07,-12.97 l 88.489998,-46.3 c 4.71,-2.45 10.51,-0.61 12.96,4.09 2.45,4.71 0.62,10.51 -4.09,12.96 v 0 z"
       id="path2" />
    <path
       class="cls-1"
       d="m 184.46338,149.77221 v 0 l -88.419998,46.21 c -4.73,2.41 -10.51,0.53 -12.92,-4.19 -2.39,-4.68 -0.57,-10.41 4.07,-12.86 l 88.399998,-46.21 c 4.71,-2.45 10.51,-0.61 12.96,4.1 2.45,4.71 0.61,10.51 -4.1,12.96 z"
       id="path3" />
    <path
       class="cls-1"
       d="m 184.36338,43.44221 v 0 l -122.149998,63.77 c -15.53,8.09 -28.2,9.14 -37.57,2.86 -13.88,-9.13 -13.28,-29.31 -13.1,-32.29 l -0.09,-43.07 c 0.16,-5.3 4.59,-9.46 9.88,-9.3 5.3,0.16 9.46,4.59 9.3,9.88 0,0.07 0,0.14 0,0.2 v 43.52 c 0.26,3.73 -0.09,11.39 5.12,13.92 3.21,1.47 9.2,1.65 17.61,-2.78 l 122.149998,-63.79 c 4.73,-2.41 10.52,-0.53 12.92,4.2 2.38,4.68 0.57,10.41 -4.08,12.86 v 0 z"
       id="path4" />
  </g>
</svg>
